<?xml version="1.0" encoding="utf-8"?>
<!-- Generator: Adobe Illustrator 22.1.0, SVG Export Plug-In . SVG Version: 6.00 Build 0)  -->
<svg version="1.1" id="Capa_1" xmlns="http://www.w3.org/2000/svg" xmlns:xlink="http://www.w3.org/1999/xlink" x="0px" y="0px"
	 viewBox="0 0 356 56" style="enable-background:new 0 0 356 56;" xml:space="preserve">
<style type="text/css">
	.st0{fill:#FFFFFF;}
</style>
<g>
	<path class="st0" d="M86.4,8.3H72.1h-1.9v1.9v38.3v1.9h1.9h14.4c5.6,0,10.7-2.2,14.4-6.2c3.6-3.9,5.6-9.2,5.6-14.8
		c0-5.7-2-10.9-5.6-14.8C97.1,10.6,92,8.3,86.4,8.3z M86.4,43.9h-9.5V14.9h9.5c3.8,0,7.1,1.4,9.5,4.2c2.4,2.7,3.7,6.3,3.7,10.3
		c0,4-1.3,7.6-3.7,10.3C93.5,42.5,90.2,43.9,86.4,43.9z"/>
	<path class="st0" d="M124.7,18.7c-4.5,0-8.7,1.7-11.6,4.7c-2.9,3-4.5,7.1-4.5,11.5c0,9.4,6.9,16.2,16.3,16.2
		c4.7,0,8.7-1.5,11.5-4.3l1.5-1.5l-1.6-1.4L134,42l-1.2-1l-1.2,1c-3.1,2.4-5,2.6-6.5,2.6c-4.5,0-8-2.4-9.2-6.4h22.4h1.9v-1.9
		c0-0.2,0-0.3,0-0.5c0-0.2,0-0.5,0-0.8c0-4.3-1.5-8.3-4.1-11.3C133.2,20.5,129.2,18.7,124.7,18.7z M115.7,31.7c1.2-4,4.6-6.5,9-6.5
		c2.2,0,4.3,0.8,5.8,2.2c1.2,1.1,2.1,2.6,2.6,4.3H115.7z"/>
	<path class="st0" d="M319.1,18.7c-4.5,0-8.7,1.7-11.6,4.7c-2.9,3-4.5,7.1-4.5,11.5c0,9.4,6.9,16.2,16.3,16.2
		c4.7,0,8.7-1.5,11.5-4.3l1.5-1.5l-1.6-1.4l-2.3-1.9l-1.2-1l-1.2,1c-3.1,2.4-5,2.6-6.5,2.6c-4.5,0-8-2.4-9.2-6.4h22.4h1.9v-1.9
		c0-0.2,0-0.3,0-0.5c0-0.2,0-0.5,0-0.8c0-4.3-1.5-8.3-4.1-11.3C327.6,20.5,323.5,18.7,319.1,18.7z M310.1,31.7c1.2-4,4.6-6.5,9-6.5
		c2.2,0,4.3,0.8,5.8,2.2c1.2,1.1,2.1,2.6,2.6,4.3H310.1z"/>
	<polygon class="st0" points="165.6,19.3 164.3,19.3 163.8,20.5 155.2,40.7 146.7,20.5 146.2,19.3 144.9,19.3 142,19.3 139.1,19.3 
		140.2,22 151.8,49.3 152.3,50.5 153.6,50.5 156.9,50.5 158.2,50.5 158.7,49.3 170.2,22 171.4,19.3 168.4,19.3 	"/>
	<path class="st0" d="M205.3,18.7c-3.6,0-6.7,1.4-9,3.9c-2-2.5-5-3.9-8.7-3.9c-2.6,0-4.9,0.7-6.9,2.1v-1.5h-1.9h-2.7h-1.9v1.9v27.3
		v1.9h1.9h2.7h1.9v-1.9V33.3c0-5.1,2.4-8.1,6.5-8.1c2.3,0,5.1,1,5.1,6v17.3v1.9h1.9h2.7h1.9v-1.9V33.3c0-5.2,2.2-8.1,6.3-8.1
		c3.4,0,5.3,2.1,5.3,6v17.3v1.9h1.9h2.7h1.9v-1.9V31.2c0-3.8-1.2-7-3.4-9.2C211.7,19.8,208.8,18.7,205.3,18.7z"/>
	<path class="st0" d="M247.1,19.3h-1.9v1.9v0.9c-2.7-2.2-6.1-3.4-9.8-3.4c-4.3,0-8.3,1.7-11.4,4.7c-3.1,3-4.7,7.1-4.7,11.5
		s1.7,8.5,4.7,11.5c3,3,7.1,4.7,11.4,4.7c3.7,0,7.1-1.2,9.8-3.4v0.9v1.9h1.9h2.8h1.9v-1.9V21.2v-1.9h-1.9H247.1z M235.5,44.6
		c-5.4,0-9.7-4.3-9.7-9.7c0-5.4,4.2-9.7,9.7-9.7c5.4,0,9.6,4.3,9.6,9.7C245.1,40.3,240.9,44.6,235.5,44.6z"/>
	<path class="st0" d="M267.9,31.8c-5.3-1.4-5.9-2.1-5.9-3.4c0-2.2,2.3-3.2,4.6-3.2c1.2,0,4.1,0.3,5.2,2.9l0.8,2.1l1.9-1.1l2.3-1.3
		l1.5-0.9l-0.7-1.6c-1.8-4.1-6-6.6-11.1-6.6c-3.1,0-6,1-8,2.7c-2.1,1.8-3.2,4.3-3.2,7c0,6.8,6.1,8.4,10.6,9.5c5.4,1.4,6,2.2,6,3.5
		c0,3.1-4.3,3.2-5.1,3.2c-3.2,0-5.5-1.3-6.2-3.5l-0.8-2.3l-2.1,1.2l-2.4,1.4l-1.4,0.8l0.6,1.5c1.7,4.6,6.3,7.3,12.2,7.3
		c3.3,0,6.2-0.9,8.3-2.6c2.2-1.8,3.4-4.3,3.4-7.1C278.6,34.5,272.4,32.9,267.9,31.8z"/>
	<path class="st0" d="M293.5,19.3v-5.7V11l-2.5,0.7l-2.8,0.8l-1.4,0.4v1.4v4.9h-4.1h-1.9v1.9v2.7v1.9h1.9h4.1v15.8
		c0,6,3.2,9.1,9.3,9.1c1.2,0,2.4-0.1,3.9-0.3l1.6-0.3v-1.7v-2.5V44l-2.1,0.2c-1.1,0.1-2.2,0.2-3.2,0.2c-1.2,0-2-0.1-2.3-0.4
		c-0.3-0.3-0.5-1.1-0.5-2.2V25.8h6.2h1.9v-1.9v-2.7v-1.9h-1.9H293.5z"/>
	<path class="st0" d="M351,18.9c-2.8,0-5.3,0.7-7.2,2.1v-1.7h-1.9h-2.7h-1.9v1.9v27.3v1.9h1.9h2.7h1.9v-1.9V33.4
		c0-2.7,0.7-4.8,2.2-6.2c1.2-1.2,3-1.8,5-1.8h1.9v-1.9v-2.6v-1.9H351z"/>
</g>
<path class="st0" d="M27.8,1.3C13.1,1.3,1.1,13.2,1.1,28s12,26.7,26.7,26.7c14.8,0,26.7-12,26.7-26.7S42.6,1.3,27.8,1.3z M22.9,41
	L9.7,37.3l4.8-13.1l4.9,1.8l-2.8,7.7l7.7,2.1L22.9,41z M33.1,46L17.3,13.6l5-2.4l15.8,32.5L33.1,46z M40.4,32.9l-4.9-1.8l2.8-7.7
	l-7.7-2.1l1.4-5.1l13.2,3.7L40.4,32.9z"/>
</svg>
